<svg>
    <symbol id="checkmark-icon"
        xmlns="http://www.w3.org/2000/svg" fill="currentColor" aria-hidden="true"
        class="w-3.5 h-3.5 mr-2 text-green-500 dark:text-green-400 flex-shrink-0"
        viewBox="0 0 20 20">
        <path
            d="M10 .5a9.5 9.5 0 1 0 9.5 9.5A9.51 9.51 0 0 0 10 .5Zm3.707 8.207-4 4a1 1 0 0 1-1.414 0l-2-2a1 1 0 0 1 1.414-1.414L9 10.586l3.293-3.293a1 1 0 0 1 1.414 1.414Z" />
    </symbol>
    <symbol viewBox="0 0 15 15" id="maki-cross-icon">
        <path fill="currentColor"
            d="M3.64 2.27L7.5 6.13l3.84-3.84A.92.92 0 0 1 12 2a1 1 0 0 1 1 1a.9.9 0 0 1-.27.66L8.84 7.5l3.89 3.89A.9.9 0 0 1 13 12a1 1 0 0 1-1 1a.92.92 0 0 1-.69-.27L7.5 8.87l-3.85 3.85A.92.92 0 0 1 3 13a1 1 0 0 1-1-1a.9.9 0 0 1 .27-.66L6.16 7.5L2.27 3.61A.9.9 0 0 1 2 3a1 1 0 0 1 1-1c.24.003.47.1.64.27Z"></path>
    </symbol>
    <symbol id="star-icon" xmlns="http://www.w3.org/2000/svg"
        fill="currentColor" viewBox="0 0 1792 1792">
        <path
            d="M1728 647q0 22-26 48l-363 354 86 500q1 7 1 20 0 21-10.5 35.5T1385 1619q-19 0-40-12l-449-236-449 236q-22 12-40 12-21 0-31.5-14.5T365 1569q0-6 2-20l86-500L89 695q-25-27-25-48 0-37 56-46l502-73L847 73q19-41 49-41t49 41l225 455 502 73q56 9 56 46z" />
    </symbol>
</svg>